<?xml version="1.0" encoding="UTF-8"?>
<svg id="Calque_2" data-name="Calque 2" xmlns="http://www.w3.org/2000/svg" xmlns:xlink="http://www.w3.org/1999/xlink" viewBox="0 0 181.52 144.87">
  <defs>
    <style>
      .cls-1 {
        stroke: #cfe0a3;
      }

      .cls-1, .cls-2, .cls-3 {
        fill: #fff;
        stroke-miterlimit: 10;
      }

      .cls-4 {
        stroke: url(#Nouvelle_nuance_de_dégradé_1-6);
      }

      .cls-4, .cls-5, .cls-6, .cls-7, .cls-8, .cls-9, .cls-10, .cls-11, .cls-12, .cls-13, .cls-14, .cls-15 {
        stroke-linecap: round;
        stroke-linejoin: round;
      }

      .cls-4, .cls-11, .cls-13, .cls-14 {
        fill: #eaa89c;
      }

      .cls-5 {
        fill: url(#Nouvelle_nuance_de_dégradé_1_2-5);
        stroke: url(#Nouvelle_nuance_de_dégradé_1-11);
      }

      .cls-16 {
        fill: #84b030;
      }

      .cls-6 {
        fill: url(#Nouvelle_nuance_de_dégradé_1_2-3);
        stroke: url(#Nouvelle_nuance_de_dégradé_1-9);
      }

      .cls-2 {
        stroke: #eaa89c;
      }

      .cls-7 {
        stroke: url(#Nouvelle_nuance_de_dégradé_1-3);
      }

      .cls-7, .cls-8 {
        fill: #ea5b0c;
      }

      .cls-8 {
        stroke: url(#Nouvelle_nuance_de_dégradé_1-5);
      }

      .cls-9 {
        fill: url(#Nouvelle_nuance_de_dégradé_1_2);
        stroke: url(#Nouvelle_nuance_de_dégradé_1-7);
      }

      .cls-10 {
        fill: #92c140;
        stroke: #2e7d5c;
      }

      .cls-3 {
        stroke: url(#Nouvelle_nuance_de_dégradé_1-12);
      }

      .cls-11 {
        stroke: url(#Nouvelle_nuance_de_dégradé_1);
      }

      .cls-12 {
        fill: url(#Nouvelle_nuance_de_dégradé_1_2-2);
        stroke: url(#Nouvelle_nuance_de_dégradé_1-8);
      }

      .cls-13 {
        stroke: url(#Nouvelle_nuance_de_dégradé_1-4);
      }

      .cls-17 {
        fill: #d84d2e;
      }

      .cls-14 {
        stroke: url(#Nouvelle_nuance_de_dégradé_1-2);
      }

      .cls-15 {
        fill: url(#Nouvelle_nuance_de_dégradé_1_2-4);
        stroke: url(#Nouvelle_nuance_de_dégradé_1-10);
      }
    </style>
    <linearGradient id="Nouvelle_nuance_de_dégradé_1" data-name="Nouvelle nuance de dégradé 1" x1="12.1" y1="53.01" x2="132.43" y2="53.01" gradientUnits="userSpaceOnUse">
      <stop offset="0" stop-color="#d63e25"/>
      <stop offset="1" stop-color="#d84d2e"/>
    </linearGradient>
    <linearGradient id="Nouvelle_nuance_de_dégradé_1-2" data-name="Nouvelle nuance de dégradé 1" x1="59.09" y1="123.1" x2="149.23" y2="123.1" xlink:href="#Nouvelle_nuance_de_dégradé_1"/>
    <linearGradient id="Nouvelle_nuance_de_dégradé_1-3" data-name="Nouvelle nuance de dégradé 1" x1="59.04" y1="140.9" x2="60.06" y2="140.9" xlink:href="#Nouvelle_nuance_de_dégradé_1"/>
    <linearGradient id="Nouvelle_nuance_de_dégradé_1-4" data-name="Nouvelle nuance de dégradé 1" x1="31.33" y1="102.44" x2="155.31" y2="102.44" xlink:href="#Nouvelle_nuance_de_dégradé_1"/>
    <linearGradient id="Nouvelle_nuance_de_dégradé_1-5" data-name="Nouvelle nuance de dégradé 1" x1="31.21" y1="124.77" x2="32.23" y2="124.77" xlink:href="#Nouvelle_nuance_de_dégradé_1"/>
    <linearGradient id="Nouvelle_nuance_de_dégradé_1-6" data-name="Nouvelle nuance de dégradé 1" x1="15.89" y1="77.31" x2="150.53" y2="77.31" xlink:href="#Nouvelle_nuance_de_dégradé_1"/>
    <linearGradient id="Nouvelle_nuance_de_dégradé_1_2" data-name="Nouvelle nuance de dégradé 1 2" x1="16.39" y1="89.13" x2="154.91" y2="89.13" gradientUnits="userSpaceOnUse">
      <stop offset="0" stop-color="#d63e25"/>
      <stop offset="1" stop-color="#e07755"/>
    </linearGradient>
    <linearGradient id="Nouvelle_nuance_de_dégradé_1-7" data-name="Nouvelle nuance de dégradé 1" x1="15.89" y1="89.13" x2="155.41" y2="89.13" xlink:href="#Nouvelle_nuance_de_dégradé_1"/>
    <linearGradient id="Nouvelle_nuance_de_dégradé_1_2-2" data-name="Nouvelle nuance de dégradé 1 2" x1="12.27" y1="65.89" x2="150.03" y2="65.89" xlink:href="#Nouvelle_nuance_de_dégradé_1_2"/>
    <linearGradient id="Nouvelle_nuance_de_dégradé_1-8" data-name="Nouvelle nuance de dégradé 1" x1="11.77" y1="65.89" x2="150.53" y2="65.89" xlink:href="#Nouvelle_nuance_de_dégradé_1"/>
    <linearGradient id="Nouvelle_nuance_de_dégradé_1_2-3" data-name="Nouvelle nuance de dégradé 1 2" x1="18.29" y1="112.19" x2="166.4" y2="112.19" xlink:href="#Nouvelle_nuance_de_dégradé_1_2"/>
    <linearGradient id="Nouvelle_nuance_de_dégradé_1-9" data-name="Nouvelle nuance de dégradé 1" x1="31.21" y1="112.19" x2="154.12" y2="112.19" xlink:href="#Nouvelle_nuance_de_dégradé_1"/>
    <linearGradient id="Nouvelle_nuance_de_dégradé_1_2-4" data-name="Nouvelle nuance de dégradé 1 2" x1="-1057.33" y1="43.09" x2="855.08" y2="43.09" xlink:href="#Nouvelle_nuance_de_dégradé_1_2"/>
    <linearGradient id="Nouvelle_nuance_de_dégradé_1-10" data-name="Nouvelle nuance de dégradé 1" x1="15.73" y1="43.09" y2="43.09" xlink:href="#Nouvelle_nuance_de_dégradé_1"/>
    <linearGradient id="Nouvelle_nuance_de_dégradé_1_2-5" data-name="Nouvelle nuance de dégradé 1 2" x1="59.54" y1="130.22" x2="143.25" y2="130.22" xlink:href="#Nouvelle_nuance_de_dégradé_1_2"/>
    <linearGradient id="Nouvelle_nuance_de_dégradé_1-11" data-name="Nouvelle nuance de dégradé 1" x1="59.04" y1="130.22" x2="143.75" y2="130.22" xlink:href="#Nouvelle_nuance_de_dégradé_1"/>
    <linearGradient id="Nouvelle_nuance_de_dégradé_1-12" data-name="Nouvelle nuance de dégradé 1" x1="33.95" y1="38.7" x2="49.33" y2="38.7" gradientTransform="translate(19.94 -13.84) rotate(24.65)" xlink:href="#Nouvelle_nuance_de_dégradé_1"/>
  </defs>
  <g id="Calque_5" data-name="Calque 5">
    <g>
      <path class="cls-10" d="M83.23,26.2c2.25,0,4.58-.05,7-.19,3.57-.2,7.31-.59,11.15-1.21.5-.08.99-.27,1.4-.57.97-.69,1.94-1.43,2.91-2.22,8.87-7.33,13.6-16.25,10.56-19.93-3.04-3.68-12.7-.73-21.57,6.6-3.71,3.07-6.69,6.41-8.68,9.54,0,0,0,0,0,0-2.74-2.69-6.64-5.37-11.26-7.55-10.41-4.91-20.49-5.38-22.53-1.06-1.18,2.51.49,5.52,4.16,8.64s8.1,5.14,12.8,6.14c4.02.85,8.85,1.8,14.07,1.82"/>
      <path class="cls-10" d="M56.2,13.35c5.74,8.23,15.16,8.91,16.06,9.02"/>
      <path class="cls-10" d="M116.25,2.08c-3.04-3.68-12.7-.73-21.57,6.6-3.71,3.07-6.69,6.41-8.68,9.54,0,0,0,0,0,0-2.74-2.69-6.64-5.37-11.26-7.55-10.41-4.91-20.49-5.38-22.53-1.06-1.18,2.51.49,5.52,4.16,8.64s8.1,5.14,12.8,6.14c4.02.85,8.85,1.8,14.07,1.82,2.25,0,4.58-.05,7-.19,3.57-.2,7.31-.59,11.15-1.21.5-.08.99-.27,1.4-.57.97-.69,1.94-1.43,2.91-2.22,8.87-7.33,13.6-16.25,10.56-19.93Z"/>
      <path class="cls-11" d="M118.92,43.37l13.01-9.71c-33.13-.86-61.29,4.54-82.74,11.03l-36.59,27.75c9.5-5.52,48.7-26.24,106.3-29.07,0,0,.03-.01.03-.01Z"/>
      <path class="cls-14" d="M59.59,140.87c16.34-7.65,41.01-17.07,72.58-22.93h.03s16.54-12.6,16.54-12.6c-21.71,2.3-40.9,6.5-57.24,11.31l-31.91,24.23Z"/>
      <polygon class="cls-7" points="59.54 140.9 59.56 140.9 59.55 140.89 59.54 140.9"/>
      <path class="cls-13" d="M70.3,95.48l-31.68,24.06-6.79,5.15c2.9-1.63,6.56-3.57,10.92-5.7,19.46-9.5,53.1-22.69,97.82-27.96l.05-.02,14.2-10.81c-33.65,1.62-62.16,8.03-84.51,15.28Z"/>
      <polygon class="cls-8" points="31.71 124.78 31.73 124.77 31.72 124.77 31.71 124.78"/>
      <path class="cls-4" d="M136.42,64.09l13.61-10.3c-37.43,1.06-68.84,8.12-92.88,16.08l-40.76,30.94c13.09-7.83,55.93-30.59,119.96-36.71l.08-.02Z"/>
      <path class="cls-9" d="M154.74,71.95c-.24-3.25-.75-6.25-1.45-9.04-5.81.26-11.44.68-16.94,1.2-64.02,6.12-106.86,28.87-119.96,36.71,2.33,6.27,5.21,11.25,7.38,14.53,9.1-5.05,24.94-12.85,46.54-19.87,22.35-7.26,50.86-13.66,84.51-15.28.14-2.68.13-5.44-.08-8.25Z"/>
      <path class="cls-12" d="M143.22,43.28c-8.43-.35-16.54-.29-24.32.1-57.6,2.83-96.8,23.55-106.3,29.07-.61,5.79-.32,11.26.53,16.27,8.97-4.92,23.93-12.19,44.02-18.85,24.04-7.96,55.45-15.02,92.88-16.08-2.02-4.24-4.43-7.73-6.81-10.51Z"/>
      <path class="cls-6" d="M143.1,90.75c-.84.09-1.7.18-2.53.28-44.71,5.27-78.36,18.46-97.82,27.96-4.36,2.13-8.02,4.08-10.92,5.7-.04.02-.08.05-.12.07,0,0,.01,0,.01.01,0,0,0,0,0,0,3.04,2.84,7.53,6.48,13.47,9.86,10.79-5.39,26.44-12.15,46.3-18,16.34-4.81,35.52-9.01,57.24-11.31.03,0,.07,0,.1-.01,1.95-4.65,3.67-9.89,4.78-15.58-3.58.28-7.07.63-10.52,1.01Z"/>
      <path class="cls-15" d="M62.16,30.22c-4.48-.72-7.1-1.43-7.1-1.43,0,0-27.76.02-38.83,28.61,7.79-3.75,18.95-8.46,32.96-12.7,21.45-6.5,49.61-11.89,82.74-11.03-4.24-2.66-13.14-6.87-30.23-3.71-.54.1-1.07.19-1.61.28,0,0-.02,0-.02.01-4.09.69-8.08,1.11-11.87,1.33-2.42.14-4.75.19-7,.19-7.77-.02-14.39-.78-19.02-1.53"/>
      <path class="cls-5" d="M59.54,140.89s0,0,.01,0c0,0,0,0,.01,0,6.1,1.91,13.05,3.23,20.85,3.44,14.65.4,26.68-2.51,35.76-6.06,11.21-4.39,20.59-12.22,27.08-22.21-3.78.57-7.47,1.19-11.08,1.86-31.57,5.86-56.25,15.29-72.58,22.93-.02,0-.03.02-.05.02Z"/>
    </g>
    <path class="cls-10" d="M57.22,11.81c5.74,8.23,15.16,8.91,16.06,9.02"/>
    <ellipse class="cls-3" cx="41.64" cy="38.7" rx="7.86" ry="1.95" transform="translate(-12.35 20.9) rotate(-24.65)"/>
    <g>
      <path class="cls-17" d="M30.49,80.79c-.1,0-.19,0-.29-.01-.35-.04-.69-.08-1.02-.14-2.69-.48-4.84-1.82-6.4-3.99-1.32-1.89-2.16-4.06-2.55-6.5-.88,1.21-2.34,1.91-4.14,1.91-.5,0-1.05-.05-1.63-.16-3.37-.6-4.73-2.45-4.94-4.35-.8.5-1.79.77-2.91.77-.5,0-1.05-.05-1.63-.16-4.18-.75-5.28-3.43-4.91-5.7l1.42-7.96c1.71-9.52,7.34-10.95,10.55-10.95.76,0,1.56.07,2.38.22,1.85.33,3.44.97,4.74,1.89.86-.23,1.77-.35,2.73-.35.76,0,1.56.07,2.38.22,4.36.78,6.46,3.12,7.46,4.95,1.35,2.48,1.66,5.62.95,9.59-1.25,7-.89,8.56-.85,8.72.13.44.42,1.09,1.46,1.69,2.07,1.1,3.06,3.15,2.63,5.51-.03.15-.07.32-.12.51-.61,2.4-2.43,3.97-4.99,4.26-.1.01-.21.02-.31.02Z"/>
      <path class="cls-2" d="M23.01,69.53c-.3-2.09.01-5.75.95-11,.47-2.62.05-4.05-1.26-4.29-1.31-.23-2.2.96-2.67,3.59l-1.76,9.84c-.24,1.31-1.34,1.79-3.31,1.44-1.97-.35-2.83-1.19-2.6-2.5l1.76-9.84c.47-2.62.05-4.05-1.26-4.29-1.31-.24-2.2.96-2.67,3.58l-1.41,7.88c-.24,1.31-1.34,1.79-3.31,1.44-1.95-.35-2.82-1.17-2.61-2.45l1.42-7.92c1.17-6.56,4.39-9.37,9.64-8.44,2.03.36,3.58,1.15,4.66,2.36,1.43-.76,3.16-.96,5.19-.6,5.25.94,7.29,4.69,6.11,11.25-.94,5.25-1.2,8.59-.78,10.02.42,1.43,1.36,2.56,2.83,3.38,1.01.52,1.41,1.36,1.2,2.52-.01.08-.04.17-.06.27-.33,1.29-1.18,2.02-2.57,2.17-.28-.03-.55-.07-.82-.11-1.94-.35-3.47-1.3-4.58-2.85-1.08-1.55-1.77-3.36-2.07-5.45Z"/>
      <path class="cls-17" d="M46.55,75.81c-.28,0-.57-.01-.88-.04-1.58-.13-2.8-.56-3.72-1.29-.84-.67-1.38-1.55-1.6-2.56-.84.64-2.02,1.06-3.59,1.06-.28,0-.57-.01-.88-.04-4.23-.36-5.57-2.93-5.41-5.22l.68-8.06c.88-10.38,7.05-11.93,10.66-11.93.4,0,.8.02,1.22.05,3.55.3,6.2,1.73,7.88,4.24,1.57,2.35,2.17,5.44,1.83,9.46l-.84,9.96c-.18,2.11-1.68,4.36-5.34,4.36Z"/>
      <path class="cls-2" d="M49.07,71.21c-.11,1.33-1.16,1.91-3.16,1.74-1.99-.17-2.93-.92-2.82-2.25l.34-3.99-3.98-.34-.17,1.99c-.11,1.33-1.17,1.91-3.16,1.74-1.97-.17-2.91-.9-2.82-2.2l.68-8.02c.56-6.64,3.5-9.74,8.81-9.29,5.31.45,7.69,4,7.13,10.64l-.84,9.96ZM39.95,60.4l3.99.34c.22-2.66-.33-4.04-1.66-4.15-1.33-.11-2.1,1.16-2.33,3.82Z"/>
      <path class="cls-17" d="M65.87,74.63c-4.17,0-5.72-2.42-5.77-4.69l-.15-18.14c.02-2.32,1.53-4.78,5.75-4.84l3.31-.03c10.93,0,12.62,5.95,12.65,9.49.01,1.58-.28,3-.88,4.24.62,1.23.94,2.64.96,4.21.03,3.59-1.59,9.63-12.75,9.72,0,0-3.09.02-3.1.02Z"/>
      <path class="cls-2" d="M62.77,51.77c0-1.29.99-1.95,2.95-1.98l3.03-.03c6.67-.06,10.02,2.17,10.06,6.68.02,1.75-.47,3.17-1.46,4.25,1.01,1.06,1.52,2.47,1.54,4.21.04,4.52-3.28,6.81-9.94,6.87l-3,.02c-1.98.02-2.99-.63-3.02-1.93l-.15-18.09ZM68.8,54.85l.03,3.38h.58c2.28-.1,3.42-.67,3.41-1.72,0-1.13-1.35-1.68-4.01-1.65ZM68.87,63.31l.03,3.38c2.67-.02,3.99-.6,3.99-1.74,0-1.04-1.15-1.59-3.44-1.64h-.58Z"/>
      <path class="cls-17" d="M91.39,73.92c-3.65,0-9.89-1.57-10.61-12.05l-.14-1.99c-.77-11.18,5.89-13.32,9.92-13.6l7.98-.55c.12,0,.25-.01.37-.01,2.17,0,4.58,1.45,4.86,5.5.19,2.8-.76,4.5-2.09,5.39.34.74.57,1.64.64,2.73.08,1.1-.03,2.03-.26,2.81,1.42.7,2.61,2.26,2.8,5.03.11,1.58-.12,2.85-.71,3.88-.77,1.35-2.09,2.16-3.71,2.27l-8.06.56c-.34.02-.67.04-1,.04Z"/>
      <path class="cls-2" d="M98.73,48.55c1.33-.09,2.06.86,2.2,2.86.14,1.99-.46,3.04-1.79,3.13l-8.04.55c-.92.06-1.46.77-1.62,2.12l7.81-.54c1.33-.09,2.06.86,2.2,2.86s-.46,3.04-1.79,3.13l-7.81.54c.36,1.31,1.02,1.93,1.96,1.87l7.98-.55c1.33-.09,2.06.86,2.2,2.85s-.46,3.04-1.79,3.13l-8.06.56c-5.27.36-8.13-2.77-8.59-9.39l-.14-1.99c-.46-6.68,1.97-10.21,7.29-10.57l7.98-.55Z"/>
      <path class="cls-17" d="M110.09,72.56c-3.44,0-4.95-2.13-5.21-4.12l-2.49-22c-.23-2.33,1.04-4.94,5.26-5.41.4-.05.78-.07,1.12-.07,3.5,0,4.99,2.18,5.22,4.22l2.47,21.86c.26,2.32-.98,4.97-5.25,5.46-.4.05-.78.07-1.13.07Z"/>
      <path class="cls-2" d="M113.66,67.36c.15,1.33-.77,2.1-2.76,2.33-1.97.22-3.03-.31-3.2-1.6l-2.48-21.95c-.13-1.3.8-2.06,2.76-2.28,1.99-.22,3.06.33,3.21,1.65l2.47,21.86Z"/>
      <path class="cls-17" d="M121.73,71.17c-3.29-.14-4.7-2.27-4.92-4.2l-2.11-22.04c-.19-2.33,1.13-4.92,5.35-5.32.47-.05.92-.06,1.34-.04,3.34.14,4.74,2.31,4.93,4.3l2.1,21.9c.22,2.33-1.07,4.96-5.35,5.37-.47.05-.93.06-1.34.04Z"/>
      <path class="cls-2" d="M125.6,66.03c.13,1.33-.81,2.09-2.8,2.28-1.97.19-3.03-.36-3.17-1.66l-2.1-21.99c-.1-1.3.83-2.04,2.8-2.23,1.99-.19,3.05.38,3.18,1.71l2.1,21.9Z"/>
      <path class="cls-17" d="M138.47,69.33c-3.88,0-8.85-1.89-10.49-10.88l-.36-1.97c-.73-3.98-.48-7.13.86-9.62.99-1.84,3.13-4.2,7.49-4.99l7.87-1.43c.31-.06.62-.08.92-.08,1.2,0,4.07.48,4.88,4.96.28,1.56.19,2.85-.28,3.94-.28.65-.69,1.2-1.19,1.64.4.67.73,1.54.94,2.66.19,1.06.21,1.99.06,2.82,1.28.46,2.78,1.65,3.34,4.69.77,4.23-1.41,6.19-3.71,6.61l-7.95,1.45c-.82.15-1.62.23-2.38.23Z"/>
      <path class="cls-2" d="M144.31,43.23c1.31-.24,2.15.63,2.5,2.59s-.12,3.07-1.43,3.31l-7.93,1.44c-.9.16-1.36.93-1.38,2.28l7.7-1.4c1.31-.24,2.15.63,2.51,2.59.36,1.97-.12,3.07-1.43,3.31l-7.7,1.4c.5,1.26,1.22,1.81,2.16,1.64l7.87-1.43c1.31-.24,2.15.63,2.5,2.59.36,1.97-.12,3.07-1.43,3.31l-7.95,1.45c-5.2.95-8.39-1.84-9.58-8.37l-.36-1.97c-1.2-6.59.82-10.36,6.07-11.32l7.87-1.43Z"/>
    </g>
    <g>
      <path class="cls-16" d="M40.52,109.1c-.31,0-.64-.02-.99-.05-1.52-.16-2.68-.58-3.57-1.32-.74-.61-1.23-1.38-1.46-2.27-.78.5-1.8.82-3.12.82-.31,0-.64-.02-.99-.05-4.09-.42-5.34-2.95-5.15-5.17l.77-7.55c.99-9.71,6.78-11.17,10.14-11.17.45,0,.91.02,1.38.07,4.2.43,6.37,2.51,7.45,4.19,1.46,2.26,1.98,5.21,1.59,9.01l-.96,9.33c-.21,2.01-1.66,4.16-5.11,4.16Z"/>
      <path class="cls-1" d="M42.82,104.65c-.13,1.24-1.12,1.77-2.99,1.58-1.87-.19-2.73-.91-2.61-2.15l.38-3.73-3.73-.38-.19,1.87c-.13,1.24-1.12,1.77-2.99,1.58-1.85-.19-2.72-.89-2.61-2.11l.77-7.5c.64-6.22,3.44-9.07,8.42-8.56,4.97.51,7.14,3.87,6.51,10.09l-.96,9.33ZM34.44,94.37l3.73.38c.25-2.49-.24-3.79-1.48-3.92-1.24-.13-1.99,1.05-2.25,3.54Z"/>
      <path class="cls-16" d="M55.8,110.95c-.3,0-.6,0-.91-.02-2.98-.13-5.51-1.01-7.53-2.62-2.62-2.08-3.09-4.25-3.03-5.72.08-1.78.8-3.19,2.01-4.09-.07-.08-.13-.16-.19-.24-1.06-1.47-1.53-3.11-1.45-4.91.12-2.75,1.38-5.04,3.62-6.61,1.93-1.37,4.46-2.06,7.49-2.06.31,0,.63,0,.96.02,2.94.13,5.45.96,7.46,2.45,2.69,1.99,3.17,4.11,3.11,5.54-.06,1.4-.61,2.85-1.84,3.84l.06.07.1.15c.96,1.49,1.4,3.2,1.32,5.07-.13,2.84-1.35,5.22-3.55,6.88-1.97,1.5-4.54,2.25-7.63,2.25Z"/>
      <path class="cls-1" d="M61.63,96.93c.42.26.74.48.97.67.23.19.45.41.67.68.64,1,.93,2.13.87,3.41-.09,2.01-.9,3.59-2.43,4.75-1.63,1.24-3.86,1.79-6.7,1.66-2.38-.11-4.34-.78-5.89-2.01-1.36-1.08-2.01-2.2-1.96-3.37.08-1.78,1.2-2.62,3.35-2.52.79.03,1.6.42,2.43,1.15.83.72,2.03,1.12,3.61,1.19,1.25.06,1.89-.31,1.93-1.1.02-.42-.9-.85-2.74-1.28-.26-.09-.83-.28-1.72-.56-.82-.25-1.48-.47-1.98-.66-1.69-.63-2.9-1.43-3.63-2.39-.64-.89-.93-1.91-.88-3.08.08-1.87.89-3.34,2.41-4.41,1.62-1.15,3.86-1.66,6.7-1.53,2.38.11,4.35.74,5.9,1.89,1.36,1.01,2.02,2.05,1.97,3.14-.07,1.66-1.19,2.44-3.34,2.34-.79-.04-1.6-.39-2.43-1.08-.83-.68-2.04-1.06-3.62-1.13-1.25-.03-1.89.33-1.92,1.07-.02.39.9.77,2.75,1.15.26.09.83.27,1.72.53.82.24,1.48.45,1.98.62.9.32,1.57.62,1.98.87Z"/>
      <path class="cls-16" d="M75.91,111.34c-2.93,0-5.46-.75-7.53-2.23-2.73-1.94-3.31-4.09-3.32-5.55-.01-1.52.5-3.11,1.79-4.2-.07-.07-.13-.15-.2-.22-1.13-1.42-1.69-3.03-1.7-4.83-.02-2.75,1.11-5.1,3.27-6.78,2.05-1.62,4.86-2.45,8.33-2.48h.13c2.89,0,5.4.69,7.45,2.06,2.79,1.85,3.38,3.94,3.39,5.37.01,1.59-.57,2.97-1.64,3.93l.07.07.11.15c1.04,1.44,1.57,3.12,1.58,5,.02,2.85-1.08,5.29-3.19,7.05-2.07,1.75-4.9,2.65-8.41,2.68h-.13Z"/>
      <path class="cls-1" d="M82.05,97.01c.43.24.77.44,1,.62.24.17.47.39.71.64.69.96,1.04,2.08,1.05,3.36.01,2.01-.71,3.63-2.18,4.86-1.56,1.32-3.76,1.99-6.61,2.01-2.38.02-4.38-.55-5.99-1.7-1.41-1.01-2.12-2.09-2.13-3.27-.01-1.78,1.06-2.67,3.22-2.69.79,0,1.62.33,2.48,1.02.86.68,2.09,1.01,3.67,1,1.25,0,1.87-.41,1.87-1.2,0-.42-.94-.8-2.81-1.14-.26-.08-.85-.23-1.75-.47-.83-.21-1.5-.4-2.01-.56-1.72-.54-2.97-1.28-3.75-2.2-.68-.85-1.02-1.86-1.03-3.03-.01-1.88.71-3.38,2.18-4.53,1.56-1.23,3.77-1.86,6.61-1.88,2.38-.02,4.38.51,5.99,1.58,1.41.94,2.12,1.95,2.13,3.03.01,1.66-1.06,2.5-3.22,2.51-.79,0-1.62-.31-2.48-.95-.86-.64-2.09-.95-3.67-.94-1.25.04-1.87.43-1.87,1.17,0,.39.94.73,2.8,1.01.26.08.85.22,1.75.44.83.2,1.5.37,2.01.51.92.28,1.6.53,2.03.77Z"/>
      <path class="cls-16" d="M91.98,110.71c-3.78,0-5.26-2.27-5.39-4.38l-.41-9.5c-.03-.94.2-1.9.75-2.73-.59-.75-.94-1.72-.99-2.85l-.08-1.87c-.08-1.74.58-2.85,1.15-3.46.57-.62,1.61-1.37,3.35-1.44l1.87-.08c.09,0,.18,0,.27,0,2.66,0,4.52,1.81,4.64,4.51l.08,1.87c.05,1.14-.22,2.15-.75,2.95.65.8.95,1.77.99,2.67l.4,9.37c.07,1.58-.57,2.95-1.8,3.85-.93.68-2.12,1.04-3.64,1.1-.15,0-.3,0-.45,0Z"/>
      <path class="cls-1" d="M88.7,89.25c-.05-1.25.54-1.9,1.79-1.95l1.87-.08c1.25-.05,1.9.54,1.95,1.79l.08,1.87c.05,1.25-.54,1.9-1.79,1.95l-1.87.08c-1.25.05-1.9-.54-1.95-1.79l-.08-1.87ZM95.04,105.87c.05,1.25-.86,1.91-2.73,1.99-1.85.08-2.82-.49-2.89-1.71l-.4-9.46c-.03-1.22.88-1.87,2.73-1.95,1.87-.08,2.84.5,2.89,1.75l.4,9.37Z"/>
      <path class="cls-16" d="M106.76,109.46c-3.44,0-9.33-1.48-10.11-11.36l-.15-1.87c-.87-11.03,6.24-12.78,9.34-13.03l7.48-.59c.14-.01.27-.02.4-.02,2.09,0,4.43,1.39,4.73,5.28.21,2.6-.66,4.23-1.87,5.12.3.68.51,1.51.59,2.5.08.99,0,1.84-.19,2.56,1.34.7,2.45,2.18,2.65,4.77.12,1.52-.09,2.74-.65,3.74-.74,1.33-2.02,2.13-3.6,2.26l-7.55.6c-.37.03-.73.04-1.07.04Z"/>
      <path class="cls-1" d="M113.54,85.44c1.25-.1,1.94.79,2.09,2.66.15,1.87-.4,2.85-1.65,2.95l-7.54.6c-.86.07-1.36.73-1.5,2l7.32-.58c1.25-.1,1.94.79,2.09,2.66.15,1.87-.4,2.85-1.65,2.95l-7.32.58c.35,1.23.97,1.8,1.86,1.73l7.48-.59c1.25-.1,1.94.79,2.09,2.66.15,1.87-.4,2.85-1.65,2.95l-7.55.6c-4.94.39-7.65-2.52-8.14-8.72l-.15-1.87c-.49-6.26,1.75-9.59,6.74-9.98l7.48-.59Z"/>
      <path class="cls-16" d="M129.04,108.32c-3.24,0-4.7-2.03-4.98-3.92l-1.61-12.15-.91.12c-.23.03-.45.04-.66.04-.96,0-4.13-.36-4.75-5.03-.54-4.07,1.63-5.87,3.84-6.2l13.14-1.74c.24-.03.44-.04.62-.04.96,0,4.12.36,4.74,5.02.2,1.51.05,2.75-.45,3.78-.67,1.37-1.91,2.23-3.48,2.44l-.91.12,1.6,12.06c.21,1.57-.31,2.99-1.45,3.99-.86.76-2.02,1.22-3.53,1.42-.43.06-.84.08-1.23.08Z"/>
      <path class="cls-1" d="M130.47,88.32l1.97,14.87c.16,1.24-.68,1.98-2.54,2.23-1.84.24-2.85-.24-3.03-1.45l-1.97-14.91-3.72.49c-1.24.16-1.98-.68-2.23-2.54-.24-1.84.24-2.85,1.45-3.03l13.1-1.73c1.21-.14,1.94.71,2.18,2.55.25,1.86-.25,2.87-1.49,3.03l-3.72.49Z"/>
      <path class="cls-16" d="M150.1,105.04c-2.48,0-4.31-1.4-4.78-3.66l-2.27-12.04-.9.17c-.31.06-.62.09-.92.09-1.16,0-3.94-.46-4.75-4.76-.76-4.04,1.31-5.96,3.49-6.41l13.03-2.46c.33-.06.61-.08.88-.08,1.16,0,3.94.46,4.75,4.76.77,4.1-1.45,6.02-3.58,6.42l-.9.17,2.25,11.95c.29,1.56-.15,3-1.23,4.06-.82.8-1.95,1.33-3.44,1.61-.58.11-1.12.16-1.63.16Z"/>
      <path class="cls-1" d="M150.84,84.98l2.78,14.74c.23,1.23-.57,2.02-2.42,2.36-1.82.34-2.86-.08-3.1-1.28l-2.79-14.78-3.69.69c-1.23.23-2.02-.57-2.36-2.42-.34-1.82.08-2.86,1.28-3.1l12.98-2.45c1.2-.21,1.98.6,2.32,2.42.35,1.84-.09,2.88-1.32,3.11l-3.68.69Z"/>
      <path class="cls-16" d="M167.77,101.1c-3.44,0-7.97-1.68-9.96-9.71l-.45-1.82c-2.67-10.73,4.05-13.64,7.07-14.39l7.28-1.81c.39-.1.79-.15,1.18-.15,1.09,0,3.75.44,4.75,4.49.37,1.48.36,2.72-.03,3.8-.22.6-.54,1.13-.96,1.57.39.6.74,1.38.98,2.36.23.94.32,1.79.25,2.56,1.21.4,2.69,1.47,3.39,4.27,1.01,4.04-1.1,6.09-3.21,6.62l-7.35,1.83c-1.01.25-2,.38-2.93.38Z"/>
      <path class="cls-1" d="M172.38,76.12c1.21-.3,2.05.46,2.5,2.28.45,1.82.07,2.88-1.14,3.18l-7.33,1.83c-.83.21-1.22.95-1.15,2.22l7.12-1.77c1.21-.3,2.04.46,2.5,2.28.45,1.82.07,2.88-1.14,3.18l-7.12,1.77c.55,1.15,1.25,1.62,2.12,1.4l7.28-1.81c1.21-.3,2.04.46,2.5,2.28.45,1.82.07,2.88-1.14,3.18l-7.35,1.83c-4.8,1.2-7.96-1.22-9.46-7.26l-.45-1.82c-1.52-6.09.15-9.74,5-10.95l7.28-1.81Z"/>
    </g>
  </g>
</svg>