<?xml version="1.0" encoding="UTF-8"?>
<svg id="Calque_2" data-name="Calque 2" xmlns="http://www.w3.org/2000/svg" viewBox="0 0 157.62 163.7">
  <defs>
    <style>
      .cls-1, .cls-2 {
        fill: #1d1d1b;
      }

      .cls-3 {
        stroke-miterlimit: 10;
      }

      .cls-3, .cls-4, .cls-5 {
        fill: #fff;
        stroke: #fff;
      }

      .cls-4 {
        stroke-width: .5px;
      }

      .cls-4, .cls-5, .cls-2 {
        stroke-linecap: round;
        stroke-linejoin: round;
      }

      .cls-5 {
        stroke-width: .3px;
      }

      .cls-6 {
        fill: #7fcae5;
      }

      .cls-2 {
        stroke: #1d1d1b;
      }
    </style>
  </defs>
  <g id="v1_logo" data-name="v1 logo">
    <ellipse class="cls-6" cx="79.55" cy="78.43" rx="59.67" ry="58.72"/>
    <path class="cls-1" d="M88.74,155.14c-28.99,4.88-54.64-8.43-72.36-31.01C-.79,102.4-4.24,70,9.01,45.71.17,67.86.84,93.56,12,114.76c7.76,15.32,20.83,27.45,36.85,33.67,6.26,2.59,12.79,4.51,19.49,5.59,6.7,1.07,13.53,1.38,20.37.92.12-.02.15.18.02.2h0Z"/>
    <path class="cls-1" d="M14.7,35.07c29.11-45.56,92.54-46.2,125.91-5.01,24.25,29.46,22.33,74.17-4.16,101.58-8.48,8.93-19.11,15.76-30.7,19.63-.12.04-.19-.15-.07-.19,11.34-4.45,21.53-11.56,29.62-20.51,34.76-37.94,23.48-100.68-23.65-122.38C95.14.58,75.92-.39,58.49,4.41c-18.06,4.78-32.9,16.39-43.79,30.66h0Z"/>
    <g>
      <path class="cls-2" d="M123.64,50.46c-.82-.99-2.22-1.51-3.7-1.63L.5,39.66s49.52,5.76,56.76,20.73c5.49,11.37-8.14,30.27-8.14,30.27,0,0,29.91-1.63,38.93,9.41,6.88,8.43,8.1,63.14,8.1,63.14l14.95-57.69,13.3-51.31c.39-1.38.08-2.73-.77-3.75Z"/>
      <path class="cls-3" d="M34.26,44.66c-.34-.09-.18-.52.19-.49l82.36,7.95c.63.19.65.93.03,1.26l-57.23,30.17c-.85.45-1.7-.31-1.1-.97,0,0,9.41-16.77,2.74-25.56-5.91-7.79-19.59-10.33-26.98-12.35Z"/>
    </g>
    <g>
      <path class="cls-2" d="M112.32,18.64c-.12-.21-.36-.35-.62-.42l-21.54-5.66s8.87,2.71,9.69,5.69c.63,2.26-2.5,5.27-2.5,5.27,0,0,5.53.7,6.81,3.02.98,1.77-.62,11.82-.62,11.82l4.66-10.05,4.14-8.94c.12-.24.11-.5-.02-.71Z"/>
      <path class="cls-4" d="M104.66,18.57c.58.35,1.25.51,1.93.44l3.7-.36-9.46-2.42,3.84,2.34Z"/>
    </g>
    <path class="cls-2" d="M71.54,20.82c-.07-.12-.2-.2-.35-.24l-12.21-3.21s5.03,1.53,5.49,3.22c.35,1.28-1.42,2.99-1.42,2.99,0,0,3.13.4,3.86,1.71.55,1-.35,6.7-.35,6.7l2.64-5.7,2.35-5.07c.07-.14.06-.28,0-.4Z"/>
    <polygon class="cls-5" points="68.95 26.47 67.2 29.93 67.86 26.09 68.95 26.47"/>
    <path class="cls-1" d="M42.83,141.12c-2.11-.79-5.15-2.33-7.17-3.43,0,0-3.16-2.41-3.16-2.41-11.38-9.1-20.05-21.68-23.83-35.81-.37-2.64-.59-5.28-.62-7.93.42,1.26.82,2.51,1.2,3.75l1.35,3.66,1.12,3.69c4.09,12.23,11.99,23.03,22.03,31.08,0,0,3.08,2.34,3.08,2.34,1.7,1.52,4.24,3.62,5.99,5.07h0Z"/>
    <path class="cls-1" d="M148.07,53.54c1.09,1.97,2.4,5.12,3.22,7.27,0,0,.83,3.88.83,3.88,2.74,14.31,1.15,29.51-5.15,42.7-1.43,2.25-2.98,4.4-4.69,6.43.5-1.23,1.01-2.44,1.53-3.63l1.35-3.66,1.55-3.53c5.33-13.15,5.99-27.98,2.62-41.72-.31-2.26-.87-5.51-1.26-7.75h0Z"/>
  </g>
</svg>