<?xml version="1.0" encoding="UTF-8"?>
<svg id="Calque_2" data-name="Calque 2" xmlns="http://www.w3.org/2000/svg" viewBox="0 0 199.89 282.67">
  <defs>
    <style>
      .cls-1, .cls-2 {
        fill: #1d1d1b;
      }

      .cls-3 {
        fill: none;
        stroke-width: 2px;
      }

      .cls-3, .cls-4 {
        stroke-miterlimit: 10;
      }

      .cls-3, .cls-5, .cls-6, .cls-7, .cls-2 {
        stroke-linecap: round;
      }

      .cls-3, .cls-2 {
        stroke: #1d1d1b;
      }

      .cls-4, .cls-8, .cls-5, .cls-6, .cls-7 {
        fill: #fff;
      }

      .cls-4, .cls-5, .cls-6 {
        stroke: #fff;
      }

      .cls-9 {
        fill: #de1c1c;
      }

      .cls-5, .cls-6, .cls-7, .cls-2 {
        stroke-linejoin: round;
      }

      .cls-5, .cls-7 {
        stroke-width: .5px;
      }

      .cls-6 {
        stroke-width: .3px;
      }

      .cls-7 {
        stroke: #143848;
      }

      .cls-10 {
        fill: #143848;
      }

      .cls-11 {
        fill: #2070b3;
      }
    </style>
  </defs>
  <g id="Logo_avec_boussole" data-name="Logo avec boussole">
    <g id="Boussole">
      <polygon class="cls-10" points="99.8 80.82 104.29 118.48 122.84 85.41 112.58 121.92 142.38 98.46 118.92 128.27 155.44 118 122.36 136.56 160.02 141.04 122.36 145.53 155.44 164.09 118.92 153.82 142.38 183.63 112.58 160.17 122.84 196.68 104.29 163.61 99.8 201.27 95.31 163.61 76.75 196.68 87.02 160.17 57.22 183.63 80.67 153.82 44.16 164.09 77.24 145.53 39.58 141.04 77.24 136.56 44.16 118 80.67 128.27 57.22 98.46 87.02 121.92 76.75 85.41 95.31 118.48 99.8 80.82"/>
      <polygon class="cls-7" points="87.66 128.96 85.25 126.93 91.2 89.78 87.66 128.96"/>
      <polygon class="cls-7" points="112.38 154.03 114.79 156.05 108.84 193.21 112.38 154.03"/>
      <polygon class="cls-9" points="113.28 141.34 99.8 0 86.27 141.34 113.28 141.34"/>
      <polygon class="cls-11" points="113.3 141.34 99.82 282.67 86.29 141.34 113.3 141.34"/>
      <circle class="cls-8" cx="99.96" cy="141.49" r="9.45"/>
      <g>
        <polygon class="cls-10" points="0 141.43 84.38 126.2 87.66 128.96 86.5 141.28 87.66 153.97 85.5 156.37 0 141.43"/>
        <polygon class="cls-8" points="7 141.07 85.73 141.43 86.83 153.75 85.19 155.5 7 141.07"/>
      </g>
      <g>
        <polygon class="cls-10" points="199.89 141.22 115.5 125.99 112.23 128.75 113.38 141.07 112.23 153.76 114.39 156.16 199.89 141.22"/>
        <polygon class="cls-8" points="192.89 140.86 114.16 141.22 113.06 153.54 114.69 155.29 192.89 140.86"/>
      </g>
    </g>
    <path class="cls-1" d="M109.09,218.98c-28.99,4.88-54.64-8.43-72.36-31.01-17.17-21.72-20.61-54.13-7.36-78.42-8.84,22.15-8.17,47.85,2.99,69.05,7.76,15.32,20.83,27.45,36.85,33.67,6.26,2.59,12.79,4.51,19.49,5.59,6.7,1.07,13.53,1.38,20.37.92.12-.02.15.18.02.2h0Z"/>
    <path class="cls-1" d="M35.22,98.9c29.12-45.5,92.46-46.22,125.86-5.06,25.39,30.89,22.06,77.72-7.45,104.7-7.78,7.33-17.35,12.87-27.42,16.36-.12.05-.19-.15-.07-.19,25.56-10,44.72-33.39,49.01-60.52,3.35-20.86-1.99-42.91-14.94-59.68-32.2-42.17-95.16-36.89-125,4.39h0Z"/>
    <g>
      <path class="cls-2" d="M143.98,114.3c-.82-.99-2.22-1.51-3.7-1.63l-119.43-9.17s49.52,5.76,56.76,20.73c5.49,11.37-8.14,30.27-8.14,30.27,0,0,29.91-1.63,38.93,9.41,6.88,8.43,8.1,63.14,8.1,63.14l14.95-57.69,13.3-51.31c.39-1.38.08-2.73-.77-3.75Z"/>
      <path class="cls-4" d="M54.61,108.51c-.34-.09-.18-.52.19-.49l82.36,7.95c.63.19.65.93.03,1.26l-57.23,30.17c-.85.45-1.7-.31-1.1-.97,0,0,9.41-16.77,2.74-25.56-5.91-7.79-19.59-10.33-26.98-12.35Z"/>
    </g>
    <g>
      <path class="cls-2" d="M132.67,82.48c-.12-.21-.36-.35-.62-.42l-21.54-5.66s8.87,2.71,9.69,5.69c.63,2.26-2.5,5.27-2.5,5.27,0,0,5.53.7,6.81,3.02.98,1.77-.62,11.82-.62,11.82l4.66-10.05,4.14-8.94c.12-.24.11-.5-.02-.71Z"/>
      <path class="cls-5" d="M125.01,82.41c.58.35,1.25.51,1.93.44l3.7-.36-9.46-2.42,3.84,2.34Z"/>
    </g>
    <path class="cls-2" d="M91.89,84.66c-.07-.12-.2-.2-.35-.24l-12.21-3.21s5.03,1.53,5.49,3.22c.35,1.28-1.42,2.99-1.42,2.99,0,0,3.13.4,3.86,1.71.55,1-.35,6.7-.35,6.7l2.64-5.7,2.35-5.07c.07-.14.06-.28,0-.4Z"/>
    <polygon class="cls-6" points="89.3 90.31 87.55 93.77 88.21 89.93 89.3 90.31"/>
    <path class="cls-1" d="M63.18,204.97c-2.11-.79-5.15-2.33-7.17-3.43,0,0-3.16-2.41-3.16-2.41-11.38-9.1-20.05-21.68-23.83-35.81-.37-2.64-.59-5.28-.62-7.93.42,1.26.82,2.51,1.2,3.75l1.35,3.66,1.12,3.69c4.09,12.23,11.99,23.03,22.03,31.08,0,0,3.08,2.34,3.08,2.34,1.7,1.52,4.24,3.62,5.99,5.07h0Z"/>
    <path class="cls-3" d="M168.42,117.39c7.02,19.78,5.85,41.95-5.78,60.28"/>
  </g>
</svg>