<?xml version="1.0" encoding="UTF-8"?>
<svg id="Calque_2" data-name="Calque 2" xmlns="http://www.w3.org/2000/svg" viewBox="0 0 907.64 668.02">
  <defs>
    <style>
      .cls-1 {
        fill: #fff;
      }

      .cls-2 {
        stroke-miterlimit: 10;
        stroke-width: 2px;
      }

      .cls-2, .cls-3, .cls-4 {
        stroke: #000;
      }

      .cls-3, .cls-4 {
        stroke-linecap: round;
        stroke-linejoin: round;
      }

      .cls-4 {
        stroke-width: .5px;
      }
    </style>
  </defs>
  <g id="Version_Fond_Blanc" data-name="Version Fond Blanc">
    <g id="Calque_3" data-name="Calque 3">
      <path class="cls-2" d="M269.93,380.05c-9.08-17.94-13.82-37.85-5.13-44.16,5.77-4.19,12.79-1.89,20.26,3.61h0c-7.98,8.35-12.95,19.12-14.12,30.62l-1.01,9.93Z"/>
      <path class="cls-2" d="M298.02,417.34c-4.72-5.06-9.29-10.3-13.39-14.96-2.51-2.85-5.02-6.18-7.43-9.79l2-19.34c1.08-10.43,5.73-20.17,13.17-27.56h0c3.48,3.27,7.01,6.98,10.49,10.82,0,0-7.69,12.68-1.89,29.89,5.42,16.08-2.96,30.93-2.96,30.93Z"/>
      <path class="cls-2" d="M321.51,437.8c-4.16-2.27-8.68-5.88-13.27-10.15,0,0,10.37-24.84,3.96-43.41-5.35-15.5-2.08-19.58-2.08-19.58,1.02,1.16,2.04,2.32,3.04,3.46,9.54,10.82,20.03,28.19,24.61,43.42h0c-7.1,6.82-12.47,15.24-15.66,24.55l-.59,1.72Z"/>
      <path class="cls-2" d="M326.55,439.91c3.62.98,6.8.49,9.31-2.05,4.34-4.39,5.06-11.58,3.49-19.9h0c-5.24,5.97-9.36,12.84-12.17,20.27l-.63,1.68Z"/>
    </g>
    <g id="Atome">
      <path d="M333.36,568.48c-91.17-76.58-192.73-212.54-220.12-329.55-8.35-37.03-8.91-91.27,42.52-89.39,18.47.94,35.92,8.95,51.07,19.12,2.64,1.59,8.53,6.12,11.09,7.98-.47-.34-8.43-5.5-8.56-5.61-1.76-1.01-5.09-2.94-6.88-3.98-2.63-1.59-6.32-3.22-9.05-4.69-1.87-.81-5.36-2.3-7.26-3.12-8.37-3.17-17.1-5.62-26.05-6.3-43.11-2.85-49.16,32.2-44.19,67.02,19.34,116.77,131.78,268.03,217.43,348.5h0Z"/>
      <path d="M458.69,448.1c24.71,41.52,58.52,114.01,46.35,162.68-4.83,18.93-19.09,31.34-38.91,31.78-20.79.51-40.43-8.45-58.05-18.24-11.67-6.73-22.75-14.35-33.22-22.69,11.36,7.07,22.87,13.87,34.83,19.65,25.09,12.13,68.97,28.98,85.45-3.56,19.75-43.22-17.6-127.99-36.45-169.63h0Z"/>
      <path d="M131.46,462.26c-40.54-13.29-103.26-40.44-125.27-78.48-9.03-15.55-8.5-32.95,3.69-46.65,19.98-22.13,57.57-30.06,86-34.13,13.6-1.75,27.27-2.77,40.97-3-6.78.9-13.55,1.8-20.29,2.85-30.17,4.88-73.11,13.3-96.49,33.59-15.98,13.64-16.83,31.05-5.38,48.16,24.67,35.09,78.21,59.89,116.77,77.66h0Z"/>
      <path d="M142.9,446.77c-31.84-10.03-85.22-32.31-100.39-63.6-5.58-11.3-3.5-24.11,5.33-33.09,9.73-10.03,23.19-15.18,36.27-18.96,20.68-5.68,42.05-7.69,63.37-7.8-25.42,3.82-106.55,14.42-100.79,50.27,6.47,31.34,68.69,59.83,96.2,73.18h0Z"/>
      <path d="M566.19,453.8c-.6,25.82-38.95,37.44-59.96,40.19-8.38,1.16-16.82,1.66-25.28,1.2,15.99-4.72,32.14-8.21,47.74-13.68,14.59-5.41,31.81-11.95,37.49-27.71h0Z"/>
      <path d="M548.96,419.2c8.07,4.59,15.21,12.88,16.31,22.33-4.99-7.8-11.13-14.74-16.31-22.33h0Z"/>
      <path d="M512.59,394.25c6.18,2.87,12.44,5.79,18.14,9.52,1.82,1.39,3.56,2.88,5.03,4.74.04.05.03.13-.02.18-2.27-.59-4.33-1.84-6.33-2.9-1.98-1.09-3.72-2.55-5.59-3.82-3.24-2.24-8.01-5.3-11.35-7.49-.12-.07-.02-.27.11-.21h0Z"/>
      <path d="M300.63,538.26c-43.59,29.92-130.02,78.48-183.58,67.91-22.8-4.43-34.55-21.57-33.22-44.36,1.89-34.87,27.41-75.01,47.81-102.63,16.9-22.68,35.74-43.91,55.8-63.79-24.46,28.46-47.88,57.87-67.33,89.99-12.36,20.96-23.86,42.74-28.34,66.67-.39,1.85-.68,4.81-.93,6.7-2.41,26.43,11.57,40.69,37.58,42.06,52.17,2.46,126.92-36.79,172.19-62.55h0Z"/>
      <path d="M283.03,519c-31.32,20.8-106.42,62.69-142.78,42.91-10.37-5.8-14.66-17.65-13.93-29,1.89-31.18,26.91-66.32,45.94-90.19,8.51-10.46,17.5-20.51,26.93-30.1-14.5,18.48-28.53,37.23-40.84,57.22-14.07,23.04-48.13,84.11-1.62,90.15,37.42,3.61,92.73-24.04,126.3-40.98h0Z"/>
      <path d="M356.73,614.49c-11.63,23.95-34.81,57.8-65.41,53.09-36.26-7.22-50.44-62.36-54.45-93.83,9.19,28.37,28.04,93.76,66.67,87.01,22.5-4.73,40.1-28.62,53.19-46.27h0Z"/>
      <path d="M315.01,622.3c-11.16,8.07-25.03,4.28-34-5.26-8.48-8.72-13.67-20.35-17.02-31.76-2.18-7.63-3.59-15.41-4.01-23.32,6.3,14.09,11.46,28.65,19.45,41.66,8.13,13.42,18.99,23.18,35.58,18.68h0Z"/>
      <path d="M326.78,535.52c-75.45-69.49-140.85-153.14-178.58-249.23-8.85-24.71-22.51-68.37-5.81-91.64,15.82-19.5,39.84-11.11,58.41-.9,9.08,4.93,17.65,10.64,26.02,16.59-8.73-5.36-17.63-10.51-26.86-14.94-9.09-4.26-18.72-8.23-28.74-9.02-16.02-1.23-27.91,8.36-30.42,24.19-3.7,23.84,5.3,51.07,13.6,73.39,14.71,38.04,34.93,73.85,57.03,108.11,33.43,51.59,72.62,99.28,115.36,143.45h0Z"/>
      <path d="M447.69,486.56c14.35,25.69,38.38,90.14,6.17,109.95-16.53,8.95-36.67.84-51.48-7.89,14.82,4.81,34.08,11.24,48.27,2.62,25.72-17.36,3.97-79.79-2.97-104.68h0Z"/>
      <path class="cls-3" d="M568.84,276.28c-.24-.73-1.09-1.04-1.71-.61-1.59,1.09-4.36,3.31-3.56,5.22,1.1,2.64,1.9,3.66,3.31,2.43,1.2-1.06,2.84-4.37,1.97-7.04Z"/>
      <path d="M225.6,64.3c11.87-21.68,33.74-41.2,58.96-44.32,8.5-1.09,17.19.07,25.02,3.02-8.27-1.33-16.56-1.52-24.55.07-24.5,4.86-43.89,22.53-59.43,41.24h0Z"/>
      <path d="M235.72,199.9c6.57,11.8,2.86,29.66-5.46,39.77,1.86-13.41,5.02-26.1,5.46-39.77h0Z"/>
      <path d="M244.79,241.85c.15,2.22,1.16,4.04,1.86,6.08,2.26,6.09,4.63,12.08,4.69,18.76-5.19-4.6-8.16-11.17-8.54-18.04.02-2.28.15-5.17,1.99-6.8h0Z"/>
      <path d="M598.21,303.18h17.98l19,43.99h.79l19.05-43.99h18.12v65.48h-14.32v-42.63h-.51l-17.94,42.32h-9.69l-17.75-42.41h-.6v42.72h-14.14v-65.48Z"/>
      <path d="M697.03,368.66h-15.67l23.87-65.48h18.77l23.82,65.48h-15.62l-5.14-14.94h-24.94l-5.1,14.94ZM705.83,342.91h17.52l-8.48-24.79h-.56l-8.48,24.79Z"/>
      <path d="M756.08,368.66v-65.48h27.16c7.85,0,13.94,1.95,18.29,5.84,4.34,3.9,6.51,9.08,6.51,15.56,0,4.48-1.05,8.31-3.15,11.49-2.1,3.18-5.11,5.56-9.04,7.14l14.65,25.44h-16.13l-13.07-23.2h-10.66v23.2h-14.55ZM770.63,334.34h9.87c8.34,0,12.51-3.25,12.51-9.76,0-3.25-1.04-5.74-3.11-7.47-2.07-1.73-5.22-2.59-9.46-2.59h-9.83v19.82Z"/>
      <path d="M832.97,303.18v65.48h-14.55v-65.48h14.55Z"/>
      <path d="M856.84,368.66h-15.67l23.87-65.48h18.77l23.82,65.48h-15.62l-5.14-14.94h-24.94l-5.1,14.94ZM865.64,342.91h17.52l-8.48-24.79h-.56l-8.48,24.79Z"/>
      <path d="M536.91,406.82c-.25-.19-.35-.52-.26-.81.63-1.91.9-2.39,1.84-4.06,2.83-5.01,6.67-8.83,11.54-11.47,4.87-2.64,10.33-3.96,16.38-3.96,5.35,0,10.16.94,14.44,2.81s7.78,4.58,10.5,8.13,4.39,7.84,5.01,12.88h-14.74c-.56-3.6-2.18-6.44-4.87-8.5s-6.03-3.1-10.01-3.1c-5.31,0-9.59,1.87-12.84,5.6-2.64,3.04-3.57,5.65-4.38,10.68-.09.55-.72.81-1.16.47l-5.01-3.79-6.44-4.88ZM564.16,453.32c-.02.23-.22.41-.46.4-5.55-.2-9.34-1.51-13.79-3.93-4.85-2.64-8.67-6.46-11.47-11.47s-4.19-11.06-4.19-18.15c0-3.45.48-4.97,1.14-7.92.11-.51.72-.73,1.14-.42,1.57,1.14,4.81,3.52,6.05,4.54,1.48,1.23,5.12,4.13,6.12,4.92.17.13.26.33.26.54.14,6.56,1.85,10.77,4.96,14.24,2.56,2.86,4.23,4.59,8.03,5.2.43.07.79.34.95.75.31.77.78,2.33,1.11,5.23s.23,5.2.15,6.07ZM566.91,442.16c-.09-.31.14-.62.46-.63,3.65-.1,6.62-1.07,9.17-2.9,2.7-1.93,4.4-4.64,5.08-8.13h14.74c-.53,4.01-2.03,7.79-4.52,11.34-2.49,3.54-5.87,6.42-10.15,8.61-3.82,1.96-8.29,3.05-13.4,3.26-.26.01-.48-.2-.47-.46.02-1.14.06-4.1-.08-6-.21-2.85-.82-5.1-.82-5.1Z"/>
      <path d="M649.52,387.4h14.55v42.45c0,4.78-1.19,8.96-3.57,12.55-2.38,3.59-5.72,6.38-10.01,8.37-4.3,1.99-9.3,2.99-15.02,2.99s-10.76-1-15.04-2.99c-4.28-1.99-7.61-4.78-9.99-8.37-2.38-3.59-3.57-7.77-3.57-12.55v-42.45h14.55v41.31c0,3.75,1.28,6.83,3.85,9.25,2.56,2.42,5.96,3.63,10.2,3.63s7.63-1.21,10.2-3.63c2.56-2.42,3.85-5.5,3.85-9.25v-41.31Z"/>
      <path d="M676.08,452.87v-65.48h27.16c7.85,0,13.94,1.95,18.29,5.84,4.34,3.9,6.51,9.08,6.51,15.56,0,4.48-1.05,8.31-3.15,11.49-2.1,3.18-5.11,5.56-9.04,7.14l14.65,25.44h-16.13l-13.07-23.2h-10.66v23.2h-14.55ZM690.63,418.55h9.87c8.34,0,12.51-3.25,12.51-9.76,0-3.25-1.04-5.74-3.11-7.47-2.07-1.73-5.22-2.59-9.46-2.59h-9.83v19.82Z"/>
      <path d="M752.97,387.4v65.48h-14.55v-65.48h14.55Z"/>
      <path d="M764.98,452.87v-65.48h46.53v11.43h-31.98v15.38h29.52v11.21h-29.52v16.04h32.07v11.43h-46.63Z"/>
      <path d="M551.67,379.89c26.7,12.67,64.35,35.07,71.71,65.82,7.24,38.09-39.43,55.53-69.08,62.22-21.47,4.88-43.36,6.97-65.17,7.2,32.08-4.84,64.47-9.94,94.02-23.34,17.61-8.02,38.18-22.84,33.75-44.76-5.9-28.05-42.35-52.15-65.23-67.13h0Z"/>
      <path class="cls-1" d="M607.37,421.62c7.93,6.44,14.24,18.73,13.73,29.05-.01.27-.41.33-.5.07-2.67-7.57-5.44-14.93-9.6-21.8-1.28-2.33-2.66-4.61-4.01-7-.14-.23.17-.5.38-.33h0Z"/>
    </g>
    <g id="MarieCurie">
      <path d="M572.81,323.49c3.15,7.62,3.71,16.4-.51,23.75-.87,1.82-1.84,3.6-2.44,5.3-.92,2.58-.69,5.5-.45,8.29,1.93,19.74-23.32,18.3-36.64,20.34-29.96,3.72-51.6,15.4-68.62,40.62-5.78,7.94-11.17,15.89-10.11,26.08.93,14.18,1.77,28.54.31,42.74-1.96,17.07-11.7,32-22.58,44.59-21.49,24.67-49.85,42.56-80.26,53.67,33.33-20.24,65.92-44.87,85.09-79.27,5.6-10.11,8.66-20.86,10.56-32.14,1.46-7.76,2.44-15.57,2.49-23.49.1-3.96-.18-8,.34-12.3.51-4.23,2.24-8.33,4.4-11.92,5.39-8.67,11.59-16.6,18.34-24.22,12.55-13.5,29.71-22.08,47.6-25.87,7.92-1.76,16-2.66,23.93-3.41,8.21-1.05,21.3-2.09,21.98-12.44.24-4.1-.73-8.27.98-12.27,1.65-3.84,4-6.84,5.45-10.64,1.88-5.58,1.42-11.66.13-17.41h0Z"/>
      <path d="M536.09,129.04c.51-23.81,1.29-48.95-9.8-70.63-1.61-3.02-3.55-5.88-5.69-8.7,22.66,16.56,23.39,54.83,15.49,79.34h0Z"/>
      <path d="M237.91,145.68c4.05,7.12,7.83,14.79,10,22.7,1.35,5.03,1.94,10.46,1.87,15.71-.27,7.13-1.16,14.35-1.18,21.42-.2,11.98,1.61,23.85,5.9,35.14,5.52,15.26,13.66,29.58,20.15,44.58,4.09,9.47,7.84,19.44,8.92,29.83.72,6.18.33,12.44-.18,18.59-.56-8.12-1.17-16.31-3.63-24.08-9.88-31.3-34.18-57.84-36.3-91.63-1.68-34.02,9.35-35.22-5.55-72.29h0Z"/>
      <path d="M510.86,40.78c-21.61-18.64-49.13-30.91-77.82-30.4-28.65.44-54.87,12.82-78.71,28.69-3.88,2.75-7.56,5.77-11.04,9.05-5.29,4.91-9.94,10.6-14.75,16.07-4.79,5.63-11.1,11.23-19.03,10.33,10.51-.53,15.49-10.51,20.98-18.14,5.63-8.21,12.29-15.9,20.02-22.28,15.13-13.21,32.65-24.05,52.13-29.8,19.59-5.88,41.3-5.88,60.65.96,18.99,6.77,36.12,18.96,47.59,35.53h0Z"/>
      <path d="M499.27,174.31c10.61-9.75,20.26-21.52,23.05-35.93,4.77-24.82-15.15-43.45-39.41-41.54-15.56.49-30.92,7.22-40.73,19.43-11.1,13.91-16.44,31.38-19.37,48.82-4.48,27.09-6.74,48.23-32.83,63.29-7.8,4.53-16.38,8.33-23.37,13.98-8.71,6.86-12.36,17.45-15.75,27.8,2.4-13.72,6.02-25.35,17.73-34.13,5.8-4.48,12.47-8.2,18.51-12.26,7.25-4.77,13.89-11.07,17.98-18.54,6.77-12.83,7.55-27.23,9.97-41.45,3.51-22.3,11.56-45.81,29.53-60.71,10.01-7.97,22.52-12.22,35.17-12.9,28.6-2.78,53.47,19.59,46.02,48.99-3.82,14.82-14.62,26.31-26.51,35.15h0Z"/>
      <path d="M542.5,139.32c8.13,7.69,10.17,28.13,11.11,39.06.79,9.04.1,18.44.1,27.41.08,8.88.76,17.92,3.46,26.36,2.55,8.48,7.76,15.37,14.86,20.76,3.48,2.83,7.24,5.51,10.57,9.29,1.63,1.88,3.14,4.21,3.78,6.95,1.27,7.39-2.11,14.83-5.68,21.09-.99,1.88-2.76,3.45-3.69,5.4-.75,1.68-.97,3.63-.51,5.45,1.08,2.83,3.94,5.6,4.86,8.78,3.25,10.84-17.19,15.01-24.67,16.28,6.19-2.05,19.87-6.35,22.04-12.81.55-4.38-4.59-7.3-5.74-11.29-.98-3.22-.49-6.87,1.25-9.77.91-1.44,1.98-2.67,2.81-4.22,2.12-3.74,3.81-7.89,4.6-12.01.9-3.95.19-7.6-2.73-10.64-2.74-3.07-6.49-5.68-10.01-8.67-12.2-9.36-17.28-22.05-18.57-37.09-1.11-11.61.37-22.93.77-34.34,0-3.35-.17-10.23-.35-13.59-.64-9.09-2.02-25.7-8.25-32.4h0Z"/>
      <path d="M443.36,357.79c13.3-5.1,29.56-3.09,40.02,7.12,1.63,1.72,3.37,3.33,5.56,4.4,17.88,8.27,41.29,9.59,60.7,6.08,5.17-.96,10.24-2.43,15.16-4.42.47-.19,1.01.04,1.2.51.17.43,0,.91-.39,1.14-19.16,10.9-42.7,12.79-64.15,8.76-6.82-1.51-14.17-3.87-19.77-8.73-1-.84-2.05-2.16-2.93-3.15-1.65-1.79-3.5-3.39-5.52-4.75-8.08-5.48-19.05-6.87-29.2-4.91-1.25.33-1.95-1.52-.68-2.04h0Z"/>
      <path d="M321.19,338.85c8.48-21.92,27.18-42.55,51.92-44.58,40.63-2.52,60.04,28.84,53.73,66.36-3.07,18.18-11.16,35.76-24.76,48.55-9.63,9.76-20.65,18.62-31.62,26.6-7.71,5.68-15.31,11.64-22.59,17.84-9.93,8.3-19.61,18.09-24.16,30.38-5.95,14.92-1.06,30.12,10.2,41.14-13.52-10.04-19.74-26.17-14.75-42.64,3.41-11.71,10.93-21.83,19.49-30.3,2.09-2.08,6.31-6.16,8.45-8.18,11.14-10.74,24.09-19.87,35.54-30.08,5.6-5.05,11.12-10.33,16.31-15.81,9.62-10.78,15.75-24.92,18.36-39.15,4.02-20.99-1.03-45.63-22.58-54.43-9.99-4.14-21.52-5.32-32.05-2.46-18.4,5.12-32.41,20.4-41.49,36.74h0Z"/>
      <path d="M318.53,367.39c7.48-5.67,18.09-6.6,26.71-2.84,24,10.71,35.82,45.64,43.09,69.2,5.06,17.83,6.3,37.8-1.26,55.18-6.71,17.37-21.51,31.8-39.66,36.34,21.75-8.15,35.76-28.16,39.47-50.58,2.18-13.25.26-26.69-3.36-39.61-6.67-21.9-17.92-57.3-39.31-68.27-7.89-4.15-17.94-3.96-25.67.58h0Z"/>
      <path d="M413.95,429.26c16.58,28.9,11.37,63.2-15.13,84.23-3.35,2.82-8.84,6.42-12.53,8.86-20.03,13.04-39.52,28.43-50.41,50.12-9.12,17.75-10.69,37.13-8.48,56.7-7.63-22.16-6.52-46.28,4.58-67.08,8.47-16.05,21.76-29.07,36.38-39.55,7.87-5.81,16.8-10.69,24.64-16.45,25.09-18.34,30.49-48.12,20.95-76.83h0Z"/>
      <path d="M229.23,203.13c4.51-13.56-3.45-27.35-11.55-37.82-.68-.94-2.15-2.67-2.89-3.56-4.53-5-8.72-10.37-11.89-16.36-14.59-27.62-10.52-61.7,2.97-88.9,15.24-30.17,47.64-51.06,81.4-52.24,13.21-.43,27.02,1.65,38.31,8.89,5.4,3.48,10.58,9.31,10.1,16.08-.25-3.24-1.76-6.17-3.85-8.47-6.56-6.85-16.29-9.38-25.42-10.52-36.94-4-74.86,17.65-90.65,51.08-12.39,26.85-15.97,61.18,1.55,86.54,8.18,10.56,15.89,22.25,17.11,35.97.55,6.68-.58,14.23-5.18,19.28h0Z"/>
      <path d="M487.24,182.8c-10.39,7.19-23.93,5.67-35.71,3.72-23.63-4.17-46.51-13.65-70.68-12.45-11.73.54-22.45,5.55-31.37,12.94-14.94,12-23.92,30.1-28.03,48.56-1.79,8.64-2.65,17.56-1.99,26.38,1.65,13.55,2.83,28.06-2.7,40.96-2.29,5.68-5.37,10.97-8.78,16.02,2.84-5.32,5.4-10.84,7.21-16.58,3.83-11.48,2.83-23.59.87-35.38-1.16-6.05-1.44-12.39-1.2-18.52,1.22-30.91,17.56-63.36,47.02-75.92,40.28-17.55,96.42,26.33,125.36,10.28h0Z"/>
      <path d="M373.8,586.02c-1.05,4.95-6.88,7.34-11.5,6.86-1.58-.17-3.11-.6-4.5-1.37.78-.27,1.52-.4,2.26-.54,4.91-1,9.57-1.95,13.75-4.95h0Z"/>
      <path d="M334.26,602.47c.42,3.12.09,6.11,0,9.12-.03.99-.06,1.96,0,3.07-.84-.76-1.29-1.83-1.57-2.89-.72-3.16-.2-6.58,1.57-9.3h0Z"/>
      <g>
        <path class="cls-1" d="M327.9,335.72s-5.42,5.69-5.94,9.56"/>
        <path d="M327.9,335.72c-1.94,3.29-4.47,6.03-5.94,9.56.09-3.89,3-7.27,5.94-9.56h0Z"/>
      </g>
      <g>
        <path class="cls-1" d="M312.04,316.65s-1.93,4.39-4.06,5.94"/>
        <path d="M312.04,316.65c-.55,2.35-1.83,4.8-4.06,5.94,1.52-1.91,2.55-4,4.06-5.94h0Z"/>
      </g>
    </g>
  </g>
  <g id="Version_Fond_Noir" data-name="Version Fond Noir">
    <path class="cls-4" d="M511.7,246.53c-1.46,1.29-2.78,2.09-2.86,3.88.11,1.9,2.24,2.69,4.18,2.15,1.64-.42,3.33-1.61,5.02-1.2,2.01.48,3.78,2.17,5.73,2.96,4.96,2.27,9.98,1.38,12.03-3.94.8-1.79,1.01-4.25,1.79-5.77,1.25-2.41,3.17-3.77,1.68-6.29-.42-.84-.98-1.55-1.61-2.2-3.25-3.35-8.58-3.52-12.22-.61l-13.76,11.01Z"/>
    <path d="M529.65,205.11c-2.92,7.75-11.6,11.67-19.4,12.25-5.1.44-10.32-.42-15.19-1.89-6.18-2.31-6.38-2.3.31-1.44,11.94,1.29,25.94,1.14,34.28-8.92h0Z"/>
  </g>
</svg>